<?xml version="1.0" encoding="UTF-8" standalone="no"?>
<!DOCTYPE svg PUBLIC "-//W3C//DTD SVG 1.1//EN" "http://www.w3.org/Graphics/SVG/1.1/DTD/svg11.dtd">
<svg width="100%" height="100%" viewBox="0 0 580 540" version="1.1" xmlns="http://www.w3.org/2000/svg" xmlns:xlink="http://www.w3.org/1999/xlink" xml:space="preserve" xmlns:serif="http://www.serif.com/" style="fill-rule:evenodd;clip-rule:evenodd;stroke-linejoin:round;stroke-miterlimit:2;">
    <g id="Plan-de-travail1" serif:id="Plan de travail1" transform="matrix(0.818985,0,0,0.374859,-256.5,129)">
        <rect x="0" y="0" width="1334" height="750" style="fill:none;"/>
        <g transform="matrix(8.68064,0,0,18.9653,-7692.06,-15193.3)">
            <path d="M924.336,812.954C927.886,826.154 947.336,823.704 946.586,812.854C946.336,809.354 943.786,806.254 940.036,806.354C942.286,805.804 945.286,805.654 947.686,805.654C946.086,800.354 939.886,796.154 932.986,798.004C926.486,799.754 922.586,806.454 924.336,812.954ZM927.286,809.354C927.886,809.654 928.586,809.754 929.286,809.804C931.186,809.954 933.586,809.404 935.986,808.004C940.986,805.104 944.836,807.604 945.936,811.254C948.936,821.254 931.636,826.504 927.736,812.054C927.536,811.204 927.386,810.304 927.286,809.354ZM943.836,805.404C941.536,805.554 938.536,806.104 935.786,807.704C933.436,809.054 931.136,809.554 929.286,809.454C928.586,809.404 927.886,809.254 927.286,808.954C927.036,804.554 928.586,799.554 933.086,798.354C937.936,797.054 941.936,801.154 943.836,805.404ZM937.636,787.804C936.236,789.054 930.436,794.754 930.436,794.754L930.636,795.054C930.636,795.054 937.636,791.004 939.236,790.004C940.836,789.004 941.086,788.054 940.486,787.354C939.886,786.554 939.036,786.554 937.636,787.804Z" style="fill-rule:nonzero;"/>
            <path d="M956.586,802.004C955.386,799.104 955.486,798.154 955.986,798.154L955.986,797.704L950.186,797.704L950.186,798.154C950.986,798.154 952.086,800.204 952.936,802.204L961.036,821.804L964.786,821.804L963.136,817.854L968.936,803.854C970.886,799.254 972.286,798.154 973.036,798.154L973.036,797.704L968.836,797.704L968.836,798.154C970.136,798.154 970.036,800.154 968.686,803.354L962.886,817.254L956.586,802.004Z" style="fill-rule:nonzero;"/>
            <path d="M993.386,821.354C993.086,821.354 992.236,820.804 992.236,817.504L992.236,807.404C992.236,801.754 990.136,797.554 983.686,797.554C978.286,797.554 974.786,801.404 975.136,803.454C975.686,803.304 979.286,802.704 981.636,803.654C982.286,803.904 982.886,804.254 983.386,804.704C983.236,804.704 983.136,804.704 983.036,804.754C968.286,805.304 967.086,821.604 977.086,822.004C980.586,822.154 983.886,819.254 985.386,815.404C986.936,811.604 986.136,805.004 981.786,803.304C980.136,802.654 978.086,802.854 977.486,802.154C976.586,801.104 978.886,797.904 983.686,797.904C988.486,797.904 988.786,803.804 988.786,807.404L988.786,821.804L993.386,821.804L993.386,821.354ZM983.736,805.104C985.986,807.704 986.336,812.154 985.086,815.304C983.986,818.004 981.386,820.604 978.236,820.004C975.186,819.404 973.986,816.354 973.986,813.554C973.986,807.804 978.436,805.104 983.736,805.104Z" style="fill-rule:nonzero;"/>
            <g transform="matrix(1,0,0,1,-71.8819,32.6619)">
                <path d="M1013.44,806.704L1014.69,801.004C1012.99,798.104 1004.09,795.954 1000.59,799.504C995.436,804.654 999.286,810.054 1005.69,811.904C1009.04,812.904 1012.79,813.654 1013.69,816.254C1013.84,816.754 1013.84,817.254 1013.79,817.704C1013.64,818.354 1013.24,819.004 1012.79,819.504C1012.54,819.754 1012.24,820.004 1011.89,820.254C1011.19,820.654 1010.54,820.954 1009.74,821.154C1008.29,821.554 1006.59,821.654 1004.94,821.304C1003.24,820.954 1001.59,820.204 1000.24,818.904C999.336,818.104 997.236,815.204 997.486,814.004L997.086,813.904L995.886,819.454L996.286,819.704C999.136,821.404 1001.79,822.204 1004.19,822.404C1006.69,822.554 1009.94,821.954 1012.09,820.554C1013.14,819.954 1014.09,818.954 1014.74,817.804C1016.09,815.404 1015.74,812.904 1013.79,810.954C1012.59,809.804 1010.74,808.804 1008.04,808.054C1004.39,807.104 1002.24,805.954 1001.09,804.804C999.586,803.304 999.486,801.154 1000.89,799.754C1005.39,795.104 1013.29,802.554 1013.19,806.704L1013.44,806.704Z" style="fill-rule:nonzero;"/>
            </g>
            <g transform="matrix(1,0,0,1,-71.8819,32.6619)">
                <path d="M1018.24,799.904C1018.49,799.904 1019.09,800.254 1019.34,802.054L1019.34,817.504C1019.34,820.804 1018.49,821.354 1018.14,821.354L1018.14,821.804L1023.94,821.804L1023.94,821.354C1023.64,821.354 1022.79,820.804 1022.79,817.504L1022.79,797.704L1018.09,799.504L1018.24,799.904ZM1020.69,793.654C1021.99,793.654 1023.04,792.604 1023.04,791.304C1023.04,790.004 1021.99,788.954 1020.69,788.954C1019.39,788.954 1018.34,790.004 1018.34,791.304C1018.34,792.604 1019.39,793.654 1020.69,793.654Z" style="fill-rule:nonzero;"/>
            </g>
            <g transform="matrix(1,0,0,1,-71.8819,32.6619)">
                <path d="M1026.14,812.654C1027.89,819.204 1034.59,823.054 1041.14,821.304C1047.64,819.554 1051.54,812.854 1049.79,806.354C1048.04,799.804 1041.34,795.954 1034.79,797.704C1028.29,799.454 1024.39,806.154 1026.14,812.654ZM1046.39,807.254C1047.69,812.104 1046.69,819.454 1041.04,820.954C1035.39,822.504 1030.84,816.604 1029.54,811.754C1028.24,806.904 1029.29,799.554 1034.89,798.054C1040.54,796.554 1045.09,802.404 1046.39,807.254Z" style="fill-rule:nonzero;"/>
            </g>
            <g transform="matrix(1,0,0,1,-71.8819,32.6619)">
                <path d="M1052.74,798.154C1053.04,798.154 1053.89,798.754 1053.89,802.004L1053.89,817.504C1053.89,820.804 1053.04,821.354 1052.74,821.354L1052.74,821.804L1058.49,821.804L1058.49,821.354C1058.19,821.354 1057.34,820.804 1057.34,817.504C1057.34,811.204 1058.29,806.554 1059.74,803.404C1060.79,801.154 1063.29,797.804 1066.14,798.754C1068.94,799.704 1069.29,804.604 1069.29,807.004L1069.29,817.504C1069.29,820.804 1068.44,821.354 1068.14,821.354L1068.14,821.804L1073.94,821.804L1073.94,821.354C1073.64,821.354 1072.79,820.804 1072.79,817.504L1072.79,807.004C1072.79,802.504 1071.64,797.504 1066.19,797.504C1062.89,797.504 1060.64,800.454 1059.34,803.204C1058.49,805.154 1057.74,807.604 1057.34,810.654L1057.34,797.704L1052.74,797.704L1052.74,798.154Z" style="fill-rule:nonzero;"/>
            </g>
        </g>
    </g>
</svg>
