<?xml version="1.0" encoding="UTF-8"?>
<svg id="Calque_1" xmlns="http://www.w3.org/2000/svg" xmlns:xlink="http://www.w3.org/1999/xlink" xmlns:serif="http://www.serif.com/" version="1.1" viewBox="0 0 589.16 513.73">
  <!-- Generator: Adobe Illustrator 29.3.0, SVG Export Plug-In . SVG Version: 2.1.0 Build 146)  -->
  <path d="M34.45,200.98c24.94,92.73,161.57,75.52,156.3-.7-1.76-24.59-19.67-46.36-46.01-45.66,15.81-3.86,36.88-4.92,53.74-4.92-11.24-37.23-54.79-66.74-103.26-53.74-45.66,12.29-73.06,59.36-60.76,105.02ZM55.18,175.69c4.21,2.11,9.13,2.81,14.05,3.16,13.35,1.05,30.21-2.81,47.07-12.64,35.12-20.37,62.17-2.81,69.9,22.83,21.07,70.25-100.45,107.13-127.85,5.62-1.41-5.97-2.46-12.29-3.16-18.97ZM171.44,147.94c-16.16,1.05-37.23,4.92-56.55,16.16-16.51,9.48-32.67,13-45.66,12.29-4.92-.35-9.83-1.4-14.05-3.51-1.76-30.91,9.13-66.03,40.74-74.46,34.07-9.13,62.17,19.67,75.52,49.52ZM127.88,24.3c-9.83,8.78-50.58,48.82-50.58,48.82l1.41,2.11s49.17-28.45,60.41-35.47c11.24-7.02,13-13.7,8.78-18.62-4.22-5.62-10.19-5.62-20.02,3.16Z"/>
  <path d="M261,124.06c-8.43-20.37-7.73-27.05-4.21-27.05v-3.16h-40.74v3.16c5.62,0,13.35,14.4,19.32,28.45l56.9,137.69h26.34l-11.59-27.75,40.74-98.35c13.7-32.31,23.53-40.04,28.8-40.04v-3.16h-29.5v3.16c9.13,0,8.43,14.05-1.05,36.53l-40.74,97.64-44.26-107.13Z"/>
  <path d="M519.51,259.98c-2.11,0-8.08-3.86-8.08-27.05v-70.95c0-39.69-14.75-69.19-60.06-69.19-37.93,0-62.52,27.05-60.06,41.45,3.86-1.05,29.15-5.27,45.66,1.41,4.57,1.76,8.78,4.22,12.29,7.38-1.05,0-1.76,0-2.46.35-103.62,3.86-112.04,118.37-41.8,121.18,24.59,1.05,47.77-19.32,58.31-46.36,10.89-26.69,5.27-73.06-25.29-85-11.59-4.57-25.99-3.16-30.21-8.08-6.32-7.38,9.83-29.86,43.55-29.86s35.83,41.45,35.83,66.74v101.16h32.31v-3.16ZM451.72,145.83c15.81,18.26,18.26,49.52,9.48,71.65-7.73,18.97-25.99,37.23-48.12,33.02-21.43-4.22-29.86-25.64-29.86-45.31,0-40.39,31.26-59.36,68.49-59.36Z"/>
  <path d="M154.83,375.07l8.78-40.04c-11.94-20.37-74.46-35.48-99.05-10.54-36.21,36.18-9.16,74.11,35.83,87.11,23.53,7.02,49.88,12.29,56.2,30.56,1.05,3.51,1.05,7.02.7,10.19-1.05,4.57-3.86,9.13-7.02,12.64-1.76,1.76-3.86,3.51-6.32,5.27-4.92,2.81-9.48,4.92-15.1,6.32-10.19,2.81-22.13,3.51-33.72,1.05-11.94-2.46-23.53-7.73-33.02-16.86-6.35-5.62-21.1-25.99-19.35-34.42l-2.81-.7-8.43,38.99,2.81,1.76c20.02,11.94,38.66,17.56,55.52,18.97,17.56,1.05,40.39-3.16,55.5-13,7.38-4.22,14.05-11.24,18.62-19.32,9.48-16.86,7.02-34.42-6.67-48.12-8.43-8.08-21.43-15.1-40.39-20.37-25.64-6.67-40.74-14.75-48.82-22.83-10.57-10.54-11.27-25.64-1.41-35.47,31.61-32.67,87.11,19.67,86.4,48.82h1.76Z"/>
  <path d="M188.54,327.3c1.76,0,5.97,2.46,7.73,15.1v108.53c0,23.18-5.97,27.05-8.43,27.05v3.16h40.74v-3.16c-2.11,0-8.08-3.86-8.08-27.05v-139.09l-33.02,12.64,1.05,2.81ZM205.76,283.39c9.13,0,16.51-7.38,16.51-16.51s-7.38-16.51-16.51-16.51-16.51,7.38-16.51,16.51,7.38,16.51,16.51,16.51Z"/>
  <path d="M244.04,416.86c12.29,46.01,59.36,73.06,105.37,60.76,45.66-12.29,73.06-59.36,60.76-105.02-12.29-46.01-59.36-73.06-105.37-60.76-45.66,12.29-73.06,59.36-60.76,105.02ZM386.29,378.93c9.13,34.07,2.11,85.7-37.58,96.24-39.69,10.89-71.65-30.56-80.78-64.63-9.13-34.07-1.76-85.7,37.58-96.24,39.69-10.54,71.65,30.56,80.78,64.63Z"/>
  <path d="M430.9,315c2.11,0,8.08,4.22,8.08,27.05v108.88c0,23.18-5.97,27.05-8.08,27.05v3.16h40.39v-3.16c-2.11,0-8.08-3.86-8.08-27.05,0-44.26,6.67-76.92,16.86-99.05,7.38-15.81,24.94-39.34,44.96-32.66,19.67,6.67,22.13,41.09,22.13,57.95v73.76c0,23.18-5.97,27.05-8.08,27.05v3.16h40.74v-3.16c-2.11,0-8.08-3.86-8.08-27.05v-73.76c0-31.61-8.08-66.74-46.36-66.74-23.18,0-38.99,20.72-48.12,40.04-5.97,13.7-11.24,30.91-14.05,52.33v-90.97h-32.31v3.16Z"/>
</svg>