<svg width="26" height="30" viewBox="0 0 26 30" fill="none" xmlns="http://www.w3.org/2000/svg">
<path d="M4.86876 9.17114H21.1312C21.5448 9.17109 21.9535 9.26048 22.3293 9.43317C22.7051 9.60587 23.0391 9.85778 23.3084 10.1716C23.5778 10.4855 23.776 10.8539 23.8896 11.2516C24.0033 11.6492 24.0295 12.0668 23.9667 12.4756L22.1667 24.1672C22.0105 25.1832 21.4956 26.1098 20.7153 26.7791C19.935 27.4483 18.9409 27.8161 17.9129 27.8158H8.08569C7.05793 27.8158 6.06414 27.4478 5.28415 26.7786C4.50415 26.1093 3.98948 25.183 3.83326 24.1672L2.03333 12.4756C1.97047 12.0668 1.99674 11.6492 2.11035 11.2516C2.22397 10.8539 2.42223 10.4855 2.69155 10.1716C2.96087 9.85778 3.29488 9.60587 3.67068 9.43317C4.04648 9.26048 4.45518 9.17109 4.86876 9.17114Z" stroke="white" stroke-width="3" stroke-linecap="round" stroke-linejoin="round"/>
<path d="M8.69653 13.4736V6.30262C8.69653 5.16149 9.14984 4.0671 9.95674 3.26021C10.7636 2.45331 11.858 2 12.9992 2C14.1403 2 15.2347 2.45331 16.0416 3.26021C16.8485 4.0671 17.3018 5.16149 17.3018 6.30262V13.4736" stroke="white" stroke-width="3" stroke-linecap="round" stroke-linejoin="round"/>
</svg>
