<svg width="62" height="106" viewBox="0 0 62 106" fill="none" xmlns="http://www.w3.org/2000/svg">
<path d="M42.25 19.2188C43.7418 19.2188 45.1726 18.6261 46.2275 17.5712C47.2824 16.5163 47.875 15.0856 47.875 13.5938V7.96875C47.875 6.47691 47.2824 5.04617 46.2275 3.99127C45.1726 2.93638 43.7418 2.34375 42.25 2.34375H19.75C18.2582 2.34375 16.8274 2.93638 15.7725 3.99127C14.7176 5.04617 14.125 6.47691 14.125 7.96875V13.5938C14.125 15.0856 14.7176 16.5163 15.7725 17.5712C16.8274 18.6261 18.2582 19.2188 19.75 19.2188M42.25 19.2188H19.75M42.25 19.2188V24.7313C42.2508 27.1209 43.0991 29.4327 44.644 31.2558C46.1889 33.0788 48.3304 34.2948 50.6875 34.6875C55.5588 35.4975 59.125 39.7106 59.125 44.6438V92.3438C59.125 95.3274 57.9397 98.1889 55.83 100.299C53.7202 102.408 50.8587 103.594 47.875 103.594H14.125C11.1413 103.594 8.27983 102.408 6.17005 100.299C4.06026 98.1889 2.875 95.3274 2.875 92.3438V44.6438C2.875 39.7106 6.44125 35.4975 11.3125 34.6875C16.1838 33.8775 19.75 29.6644 19.75 24.7313V19.2188M2.875 52.9688H59.125M2.875 86.7188H59.125M25.375 69.8438H36.625" stroke="#705A75" stroke-width="4" stroke-linecap="round" stroke-linejoin="round"/>
</svg>
