<svg width="96" height="87" viewBox="0 0 96 87" fill="none" xmlns="http://www.w3.org/2000/svg">
<path d="M75.2511 34.3846C75.2511 34.3846 48.0011 52.5513 48.0011 84.343M35.9611 39.7574C32.3626 42.4434 27.9172 43.7435 23.4385 43.4199C18.9598 43.0963 14.7474 41.1706 11.5724 37.9953C0.563372 26.9908 2.76154 2.77465 2.76154 2.77465C2.76154 2.77465 26.9822 0.571937 37.9867 11.5809C40.0592 13.6453 41.6161 16.1688 42.5314 18.9471C43.4468 21.7254 43.6946 24.6802 43.255 27.5721" stroke="#705A75" stroke-width="4" stroke-linecap="round" stroke-linejoin="round"/>
<path d="M61.4625 47.1831C58.5636 44.0295 56.9955 39.8776 57.0861 35.595C57.1767 31.3124 58.9188 27.2305 61.9484 24.2022C71.7312 14.4195 93.2587 16.3769 93.2587 16.3769C93.2587 16.3769 95.2116 37.9044 85.4288 47.6872C83.8039 49.3151 81.858 50.587 79.7148 51.4221C77.5716 52.2572 75.2781 52.6371 72.9801 52.5377M20.751 20.7596C20.751 20.7596 48.001 43.468 48.001 84.343" stroke="#705A75" stroke-width="4" stroke-linecap="round" stroke-linejoin="round"/>
</svg>
