<svg width="27" height="27" viewBox="0 0 27 27" fill="none" xmlns="http://www.w3.org/2000/svg">
<path d="M24.4235 26.4705L15.3441 17.3911C14.6235 17.9675 13.7949 18.4239 12.8581 18.7602C11.9213 19.0965 10.9245 19.2646 9.86765 19.2646C7.24951 19.2646 5.0337 18.3579 3.22022 16.5444C1.40674 14.7309 0.5 12.5151 0.5 9.89694C0.5 7.27881 1.40674 5.063 3.22022 3.24952C5.0337 1.43604 7.24951 0.529297 9.86765 0.529297C12.4858 0.529297 14.7016 1.43604 16.5151 3.24952C18.3286 5.063 19.2353 7.27881 19.2353 9.89694C19.2353 10.9538 19.0672 11.9506 18.7309 12.8874C18.3946 13.8241 17.9382 14.6528 17.3618 15.3734L26.4412 24.4528L24.4235 26.4705ZM9.86765 16.3822C11.6691 16.3822 13.2004 15.7517 14.4614 14.4907C15.7224 13.2297 16.3529 11.6984 16.3529 9.89694C16.3529 8.09547 15.7224 6.56422 14.4614 5.30319C13.2004 4.04216 11.6691 3.41165 9.86765 3.41165C8.06618 3.41165 6.53493 4.04216 5.2739 5.30319C4.01287 6.56422 3.38235 8.09547 3.38235 9.89694C3.38235 11.6984 4.01287 13.2297 5.2739 14.4907C6.53493 15.7517 8.06618 16.3822 9.86765 16.3822Z" fill="white"/>
</svg>
