<svg width="35" height="35" viewBox="0 0 35 35" fill="none" xmlns="http://www.w3.org/2000/svg">
<path d="M8.63666 24.8499C9.86166 23.9131 11.2308 23.1745 12.744 22.6341C14.2573 22.0936 15.8425 21.8234 17.4999 21.8234C19.1573 21.8234 20.7425 22.0936 22.2558 22.6341C23.769 23.1745 25.1381 23.9131 26.3631 24.8499C27.2038 23.8651 27.8584 22.7482 28.3267 21.4992C28.7951 20.2501 29.0293 18.9171 29.0293 17.4999C29.0293 14.3053 27.9064 11.5851 25.6606 9.33924C23.4147 7.0934 20.6945 5.97049 17.4999 5.97049C14.3053 5.97049 11.5851 7.0934 9.33924 9.33924C7.0934 11.5851 5.97049 14.3053 5.97049 17.4999C5.97049 18.9171 6.20468 20.2501 6.67306 21.4992C7.14144 22.7482 7.79598 23.8651 8.63666 24.8499ZM17.4999 18.9411C16.0827 18.9411 14.8878 18.4547 13.915 17.4819C12.9422 16.5091 12.4558 15.3141 12.4558 13.897C12.4558 12.4798 12.9422 11.2848 13.915 10.312C14.8878 9.33924 16.0827 8.85284 17.4999 8.85284C18.9171 8.85284 20.112 9.33924 21.0848 10.312C22.0576 11.2848 22.544 12.4798 22.544 13.897C22.544 15.3141 22.0576 16.5091 21.0848 17.4819C20.112 18.4547 18.9171 18.9411 17.4999 18.9411ZM17.4999 31.9117C15.5063 31.9117 13.6327 31.5334 11.8793 30.7767C10.1259 30.0201 8.60063 28.9933 7.30358 27.6962C6.00652 26.3992 4.97968 24.8739 4.22306 23.1205C3.46644 21.3671 3.08813 19.4935 3.08813 17.4999C3.08813 15.5063 3.46644 13.6327 4.22306 11.8793C4.97968 10.1259 6.00652 8.60063 7.30358 7.30358C8.60063 6.00652 10.1259 4.97968 11.8793 4.22306C13.6327 3.46644 15.5063 3.08813 17.4999 3.08813C19.4935 3.08813 21.3671 3.46644 23.1205 4.22306C24.8739 4.97968 26.3992 6.00652 27.6962 7.30358C28.9933 8.60063 30.0201 10.1259 30.7767 11.8793C31.5334 13.6327 31.9117 15.5063 31.9117 17.4999C31.9117 19.4935 31.5334 21.3671 30.7767 23.1205C30.0201 24.8739 28.9933 26.3992 27.6962 27.6962C26.3992 28.9933 24.8739 30.0201 23.1205 30.7767C21.3671 31.5334 19.4935 31.9117 17.4999 31.9117Z" fill="white"/>
</svg>
