<svg width="66" height="85" viewBox="0 0 66 85" fill="none" xmlns="http://www.w3.org/2000/svg">
<path d="M4.71429 84.3438V79.6063H30.6429V57.1933H18.8571C13.6054 57.1933 9.15043 55.3536 5.49214 51.6742C1.83071 47.9979 0 43.521 0 38.2435C0 34.0524 1.35771 30.3414 4.07314 27.1104C6.78543 23.8858 10.0996 21.4255 14.0156 19.7295C14.663 13.5044 16.7074 8.71644 20.1489 5.36547C23.5903 2.0145 27.874 0.340596 33 0.343754C38.126 0.346913 42.4097 2.02082 45.8511 5.36547C49.2926 8.71012 51.337 13.4981 51.9844 19.7295C55.9601 21.3023 59.2916 23.7342 61.9787 27.0252C64.6596 30.3098 66 34.0492 66 38.2435C66 43.5179 64.1709 47.9948 60.5126 51.6742C56.848 55.3536 52.3914 57.1933 47.1429 57.1933H35.3571V79.6016H61.2857V84.339L4.71429 84.3438ZM18.8571 52.4559H47.1429C51.0714 52.4559 54.4107 51.0725 57.1607 48.3059C59.9107 45.5392 61.2857 42.185 61.2857 38.2435C61.2857 34.9778 60.2234 32.1148 58.0989 29.6544C55.9743 27.1941 53.3437 25.3497 50.2071 24.1211L47.6143 23.0788L47.2701 19.9995C46.7359 15.0504 45.199 11.3268 42.6596 8.82856C40.1201 6.33033 36.9003 5.07964 33 5.07648C29.0997 5.07332 25.8799 6.32402 23.3404 8.82856C20.801 11.3331 19.2641 15.0567 18.7299 19.9995L18.3857 23.0788L15.0669 24.4859C12.1723 25.7113 9.724 27.5242 7.722 29.9245C5.71686 32.3248 4.71429 35.0978 4.71429 38.2435C4.71429 42.1914 6.08929 45.5471 8.83929 48.3106C11.5893 51.0741 14.9286 52.4559 18.8571 52.4559Z" fill="#705A75"/>
</svg>
