<svg width="72" height="51" viewBox="0 0 72 51" fill="none" xmlns="http://www.w3.org/2000/svg">
<path d="M0.5 3.01408C0.5 2.37243 0.755011 1.75706 1.20893 1.30334C1.66286 0.849622 2.27851 0.594727 2.92045 0.594727H62.625C63.2669 0.594727 63.8826 0.849622 64.3365 1.30334C64.7905 1.75706 65.0455 2.37243 65.0455 3.01408C65.0455 3.65573 64.7905 4.27111 64.3365 4.72482C63.8826 5.17854 63.2669 5.43344 62.625 5.43344H2.92045C2.27851 5.43344 1.66286 5.17854 1.20893 4.72482C0.755011 4.27111 0.5 3.65573 0.5 3.01408ZM0.5 48.1754C0.5 47.5337 0.755011 46.9183 1.20893 46.4646C1.66286 46.0109 2.27851 45.756 2.92045 45.756H56.1705C56.8124 45.756 57.4281 46.0109 57.882 46.4646C58.3359 46.9183 58.5909 47.5337 58.5909 48.1754C58.5909 48.817 58.3359 49.4324 57.882 49.8861C57.4281 50.3398 56.8124 50.5947 56.1705 50.5947H2.92045C2.27851 50.5947 1.66286 50.3398 1.20893 49.8861C0.755011 49.4324 0.5 48.817 0.5 48.1754ZM2.92045 23.1754C2.27851 23.1754 1.66286 23.4303 1.20893 23.884C0.755011 24.3377 0.5 24.9531 0.5 25.5947C0.5 26.2364 0.755011 26.8517 1.20893 27.3055C1.66286 27.7592 2.27851 28.0141 2.92045 28.0141H69.0796C69.7215 28.0141 70.3372 27.7592 70.7911 27.3055C71.245 26.8517 71.5 26.2364 71.5 25.5947C71.5 24.9531 71.245 24.3377 70.7911 23.884C70.3372 23.4303 69.7215 23.1754 69.0796 23.1754H2.92045Z" fill="#705A75"/>
</svg>
